<svg xmlns="http://www.w3.org/2000/svg" xmlns:xlink="http://www.w3.org/1999/xlink" viewBox="0 0 24 30" version="1.1" x="0px" y="0px"><title>halloween_027-bat-animal-evil-witch</title><desc>Created with Sketch.</desc><g stroke="none" stroke-width="1" fill="none" fill-rule="evenodd"><g transform="translate(-333.000000, -141.000000)" fill="#000000"><g transform="translate(346.970563, 154.970563) rotate(-45.000000) translate(-346.970563, -154.970563) translate(331.470563, 145.470563)"><path d="M13,7.5 C13,7.77614237 13.2238576,8 13.5,8 C13.7761424,8 14,7.77614237 14,7.5 L14,3.5 C14,3.22385763 13.7761424,3 13.5,3 C13.2238576,3 13,3.22385763 13,3.5 L13,7.5 Z"/><path d="M13.3027864,4.7236068 C13.6971811,5.51239613 14.4285869,6 15.5,6 C16.5714131,6 17.3028189,5.51239613 17.6972136,4.7236068 C17.9256649,4.26670417 18,3.82069363 18,3.5 C18,3.22385763 17.7761424,3 17.5,3 C17.2238576,3 17,3.22385763 17,3.5 C17,3.67930637 16.9493351,3.98329583 16.8027864,4.2763932 C16.5721811,4.73760387 16.1785869,5 15.5,5 C14.8214131,5 14.4278189,4.73760387 14.1972136,4.2763932 C14.0506649,3.98329583 14,3.67930637 14,3.5 C14,3.22385763 13.7761424,3 13.5,3 C13.2238576,3 13,3.22385763 13,3.5 C13,3.82069363 13.0743351,4.26670417 13.3027864,4.7236068 Z"/><path d="M17,7.5 C17,7.77614237 17.2238576,8 17.5,8 C17.7761424,8 18,7.77614237 18,7.5 L18,3.5 C18,3.22385763 17.7761424,3 17.5,3 C17.2238576,3 17,3.22385763 17,3.5 L17,7.5 Z"/><path d="M20.8337445,6.92744376 C19.9307035,7.24583131 18.9524454,7.2668441 18.0465216,7.10851426 C17.849379,7.07405931 17.7096995,7.04054898 17.6414084,7.02041304 C17.3765399,6.94231531 17.0985108,7.09372299 17.020413,7.35859156 C16.9423153,7.62346012 17.093723,7.90148924 17.3585916,7.97958696 C17.4616537,8.00997531 17.6378711,8.05225141 17.8743595,8.09358289 C18.9348547,8.27892746 20.0775752,8.25438205 21.1662555,7.87054311 C23.5683092,7.0236446 25,4.6650381 25,0.5 C25,0.223857625 24.7761424,8.52651283e-13 24.5,8.52651283e-13 C24.2238576,8.52651283e-13 24,0.223857625 24,0.5 C24,4.26594657 22.8066908,6.23183679 20.8337445,6.92744376 Z"/><path d="M28.1412662,4.94941058 C28.5350805,5.64768607 28.7825453,6.39759907 28.9104686,7.15823821 C28.9954135,7.66332531 29.0169203,8.09684416 29.0038484,8.41561487 C29.0017265,8.45901452 29.0017265,8.45901452 29.0014983,8.46132132 C28.9801366,8.73663621 29.1860064,8.97714007 29.4613213,8.99850171 C29.7366362,9.01986336 29.9771401,8.81399358 29.9985017,8.53867868 C29.9999878,8.5188913 29.9999878,8.5188913 30.0030087,8.45658748 C30.018763,8.07240165 29.9938713,7.57065267 29.8966196,6.9923886 C29.7505018,6.12356358 29.4669803,5.26438502 29.0122898,4.45816952 C28.1327626,2.8986723 26.7076689,1.70322552 24.6569426,1.02526954 C24.3947562,0.938592519 24.1119466,1.08087098 24.0252695,1.34305738 C23.9385925,1.60524377 24.080871,1.88805345 24.3430574,1.97473046 C26.1541628,2.57346945 27.3823183,3.60371364 28.1412662,4.94941058 Z"/><path d="M25.2060786,9.56157393 C25.0324475,10.2261505 24.9827711,10.9037686 24.9983077,11.4618182 C24.9999237,11.5110576 24.9999237,11.5110576 25.0006677,11.525832 C25.0149343,11.8016056 25.2500584,12.0135989 25.525832,11.9993323 C25.8016056,11.9850657 26.0135989,11.7499416 25.9993323,11.474168 C25.9991334,11.470715 25.9991334,11.470715 25.9979204,11.433988 C25.9847879,10.962289 26.028122,10.371183 26.1736022,9.81435467 C26.5618998,8.32813723 27.4017776,7.88594619 29.2535366,8.93503537 C29.4938,9.07115337 29.7989174,8.98672684 29.9350354,8.74646345 C30.0711534,8.50620005 29.9867268,8.20108264 29.7464634,8.06496463 C27.2840112,6.66989534 25.7506542,7.47719938 25.2060786,9.56157393 Z"/><path d="M22.9413294,11.1858644 C23.4338764,11.1565576 23.9874372,11.2945544 24.5445773,11.5465729 C24.8537167,11.68641 25.0906545,11.8252909 25.2166263,11.9119458 C25.4441376,12.0684488 25.7554428,12.0108851 25.9119458,11.7833737 C26.0684488,11.5558624 26.0108851,11.2445572 25.7833737,11.0880542 C25.6120691,10.9702153 25.3256921,10.8023556 24.9567166,10.635452 C24.2646641,10.3224068 23.5617584,10.14718 22.8819338,10.1876299 C21.4343,10.273765 20.4023993,11.3178016 20.0086472,13.4074128 C19.9575127,13.6787795 20.1360461,13.9402184 20.4074128,13.9913528 C20.6787795,14.0424873 20.9402184,13.8639539 20.9913528,13.5925872 C21.3049356,11.9284284 21.982479,11.2429166 22.9413294,11.1858644 Z"/><path d="M15.7626192,15.7078105 C15.5022462,16.3065665 15.3051647,16.9433868 15.1614539,17.5795808 C15.0750887,17.9619117 15.0252395,18.2618699 15.0036448,18.4397382 C14.9703631,18.7138676 15.1656087,18.9630735 15.4397382,18.9963552 C15.7138676,19.0296369 15.9630735,18.8343913 15.9963552,18.5602618 C16.014109,18.4140303 16.0585169,18.146814 16.1368771,17.7999205 C16.2677089,17.2207405 16.4467582,16.6421868 16.6796645,16.1065937 C17.4789796,14.2684819 18.6415475,13.4364993 20.3491908,13.9767144 C20.6124729,14.060004 20.8934248,13.9140913 20.9767144,13.6508092 C21.060004,13.3875271 20.9140913,13.1065752 20.6508092,13.0232856 C18.358628,12.2981512 16.7423409,13.4548345 15.7626192,15.7078105 Z"/><path d="M9.80481917,7.48432423 C11.0020164,7.99193734 12.2469129,8.1132526 13.3293426,8.02140045 C13.4431631,8.01174194 13.5263867,8.00173212 13.5751358,7.99432238 C13.8481425,7.95282604 14.0358187,7.69787095 13.9943224,7.42486423 C13.952826,7.15185752 13.6978709,6.96418128 13.4248642,7.00567762 C13.397326,7.00986337 13.3359388,7.01724678 13.2447891,7.02498151 C12.3104056,7.10427085 11.2194595,6.99795806 10.1951808,6.56366264 C8.19610688,5.71605278 7,3.83098983 7,0.5 C7,0.223857625 6.77614237,-1.13686838e-13 6.5,-1.13686838e-13 C6.22385763,-1.13686838e-13 6,0.223857625 6,0.5 C6,4.22499485 7.42889312,6.47692861 9.80481917,7.48432423 Z"/><path d="M1.9945673,4.45816952 C1.53987684,5.26438502 1.25635537,6.12356358 1.1102375,6.9923886 C1.01298579,7.57065267 0.988094108,8.07240165 1.00384843,8.45658748 C1.00686935,8.5188913 1.00686935,8.5188913 1.00835542,8.53867868 C1.02971707,8.81399358 1.27022093,9.01986336 1.54553582,8.99850171 C1.82085072,8.97714007 2.0267205,8.73663621 2.00535885,8.46132132 C2.00513064,8.45901452 2.00513064,8.45901452 2.0030087,8.41561487 C1.98993686,8.09684416 2.01144366,7.66332531 2.09638855,7.15823821 C2.22431186,6.39759907 2.47177664,5.64768607 2.86559097,4.94941058 C3.62453888,3.60371364 4.85269431,2.57346945 6.66379976,1.97473046 C6.92598616,1.88805345 7.06826462,1.60524377 6.9815876,1.34305738 C6.89491059,1.08087098 6.61210091,0.938592519 6.34991452,1.02526954 C4.29918823,1.70322552 2.87409457,2.8986723 1.9945673,4.45816952 Z"/><path d="M4.82639784,9.81435467 C4.97187798,10.371183 5.01521214,10.962289 5.00207959,11.433988 C5.00086664,11.470715 5.00086664,11.470715 5.00066774,11.474168 C4.98640114,11.7499416 5.19839444,11.9850657 5.47416804,11.9993323 C5.74994163,12.0135989 5.98506566,11.8016056 5.99933226,11.525832 C6.00007632,11.5110576 6.00007632,11.5110576 6.00169225,11.4618182 C6.01722889,10.9037686 5.9675525,10.2261505 5.79392143,9.56157393 C5.24934584,7.47719938 3.71598885,6.66989534 1.25353655,8.06496463 C1.01327316,8.20108264 0.928846631,8.50620005 1.06496463,8.74646345 C1.20108264,8.98672684 1.50620005,9.07115337 1.74646345,8.93503537 C3.59822241,7.88594619 4.43810019,8.32813723 4.82639784,9.81435467 Z"/><path d="M8.11806617,10.1876299 C7.43824163,10.14718 6.73533588,10.3224068 6.04328338,10.635452 C5.67430792,10.8023556 5.38793093,10.9702153 5.21662625,11.0880542 C4.98911489,11.2445572 4.93155123,11.5558624 5.08805423,11.7833737 C5.24455722,12.0108851 5.55586238,12.0684488 5.78337375,11.9119458 C5.90934552,11.8252909 6.14628329,11.68641 6.4554227,11.5465729 C7.01256278,11.2945544 7.56612357,11.1565576 8.05867064,11.1858644 C9.01752102,11.2429166 9.69506441,11.9284284 10.0086472,13.5925872 C10.0597816,13.8639539 10.3212205,14.0424873 10.5925872,13.9913528 C10.8639539,13.9402184 11.0424873,13.6787795 10.9913528,13.4074128 C10.5976007,11.3178016 9.56570004,10.273765 8.11806617,10.1876299 Z"/><path d="M14.3203355,16.1065937 C14.5532418,16.6421868 14.7322911,17.2207405 14.8631229,17.7999205 C14.9414831,18.146814 14.985891,18.4140303 15.0036448,18.5602618 C15.0369265,18.8343913 15.2861324,19.0296369 15.5602618,18.9963552 C15.8343913,18.9630735 16.0296369,18.7138676 15.9963552,18.4397382 C15.9747605,18.2618699 15.9249113,17.9619117 15.8385461,17.5795808 C15.6948353,16.9433868 15.4977538,16.3065665 15.2373808,15.7078105 C14.2576591,13.4548345 12.641372,12.2981512 10.3491908,13.0232856 C10.0859087,13.1065752 9.93999602,13.3875271 10.0232856,13.6508092 C10.1065752,13.9140913 10.3875271,14.060004 10.6508092,13.9767144 C12.3584525,13.4364993 13.5210204,14.2684819 14.3203355,16.1065937 Z"/></g></g></g><text x="0" y="39" fill="#000000" font-size="5px" font-weight="bold" font-family="'Helvetica Neue', Helvetica, Arial-Unicode, Arial, Sans-serif">Created by Pham Thi Dieu Linh</text><text x="0" y="44" fill="#000000" font-size="5px" font-weight="bold" font-family="'Helvetica Neue', Helvetica, Arial-Unicode, Arial, Sans-serif">from the Noun Project</text></svg>